<?xml version="1.0" ?><svg height="64" id="svg2447" version="1.1" viewBox="0 0 16.933333 16.933334" width="64" xmlns="http://www.w3.org/2000/svg" xmlns:cc="http://creativecommons.org/ns#" xmlns:dc="http://purl.org/dc/elements/1.1/" xmlns:inkscape="http://www.inkscape.org/namespaces/inkscape" xmlns:rdf="http://www.w3.org/1999/02/22-rdf-syntax-ns#" xmlns:sodipodi="http://sodipodi.sourceforge.net/DTD/sodipodi-0.dtd" xmlns:svg="http://www.w3.org/2000/svg"><defs id="defs2441"/><g id="layer1" transform="translate(0,-280.06665)"><path d="m 10.752833,284.20594 c 0.358684,-10e-4 0.714686,0.0598 1.032495,0.21808 0.423745,0.21101 0.797719,0.58939 1.052649,1.29294 0.241553,0.66664 0.112363,1.42834 -0.252181,2.22054 -0.364545,0.79219 -0.960755,1.59825 -1.595768,2.31458 -1.1943803,1.34735 -2.3684278,2.23456 -2.5212932,2.3518 -0.1285558,-0.0993 -0.9771539,-0.74784 -1.9513021,-1.74821 l 2.4003704,-2.40037 a 0.26460982,0.26460982 0 0 0 -0.1912028,-0.45321 0.26460982,0.26460982 0 0 0 -0.181901,0.0801 l -2.3895183,2.389 c -0.071373,-0.0777 -0.1422193,-0.15146 -0.2139405,-0.23254 -0.6359622,-0.71894 -1.2318714,-1.52842 -1.5957682,-2.31872 -0.3638965,-0.79031 -0.491689,-1.54552 -0.2480469,-2.2009 0.2577963,-0.69346 0.6339801,-1.06767 1.0588501,-1.27744 0.42487,-0.20978 0.9158605,-0.24885 1.390613,-0.19896 0.9495049,0.0998 1.793172,0.55449 1.793172,0.55449 a 0.26460982,0.26460982 0 0 0 0.2557984,-0.002 c 0,0 0.8475945,-0.46403 1.7988561,-0.56844 0.118908,-0.0131 0.238557,-0.0202 0.358118,-0.0207 z" id="path1444-4" style="color:#000000;font-style:normal;font-variant:normal;font-weight:normal;font-stretch:normal;font-size:medium;line-height:normal;font-family:sans-serif;font-variant-ligatures:normal;font-variant-position:normal;font-variant-caps:normal;font-variant-numeric:normal;font-variant-alternates:normal;font-feature-settings:normal;text-indent:0;text-align:start;text-decoration:none;text-decoration-line:none;text-decoration-style:solid;text-decoration-color:#000000;letter-spacing:normal;word-spacing:normal;text-transform:none;writing-mode:lr-tb;direction:ltr;text-orientation:mixed;dominant-baseline:auto;baseline-shift:baseline;text-anchor:start;white-space:normal;shape-padding:0;clip-rule:nonzero;display:inline;overflow:visible;visibility:visible;opacity:1;isolation:auto;mix-blend-mode:normal;color-interpolation:sRGB;color-interpolation-filters:linearRGB;solid-color:#000000;solid-opacity:1;vector-effect:none;fill:#ec407a;fill-opacity:1;fill-rule:nonzero;stroke:none;stroke-width:0.5291667;stroke-linecap:butt;stroke-linejoin:round;stroke-miterlimit:4;stroke-dasharray:none;stroke-dashoffset:0;stroke-opacity:1;color-rendering:auto;image-rendering:auto;shape-rendering:auto;text-rendering:auto;enable-background:accumulate"/><path d="m 15.597499,281.12551 a 0.26460979,0.26460979 0 0 0 -0.08527,0.0186 l -2.645834,1.05834 a 0.26460979,0.26460979 0 0 0 0.04651,0.50488 l 0.837158,0.16743 -1.329634,1.33015 c -0.127383,-0.10027 -0.260759,-0.18492 -0.398942,-0.25373 -0.544957,-0.27138 -1.141196,-0.30914 -1.683619,-0.2496 -1.0161349,0.11153 -1.767614,0.53417 -1.8732701,0.5917 -0.1070956,-0.0573 -0.8510614,-0.47193 -1.8629355,-0.57826 -0.4038298,-0.0424 -0.8377862,-0.0306 -1.2583213,0.0899 l 0.397392,0.45476 c 0.2641071,-0.0435 0.5375228,-0.0453 0.8061524,-0.0171 0.9495049,0.0998 1.793172,0.55449 1.793172,0.55449 a 0.26460982,0.26460982 0 0 0 0.2557984,-0.002 c 0,0 0.8475945,-0.46403 1.7988561,-0.56844 0.118908,-0.0131 0.238557,-0.0202 0.358118,-0.0207 0.358684,-0.001 0.714687,0.0598 1.032495,0.21808 0.423745,0.21102 0.797719,0.58939 1.052649,1.29294 0.241553,0.66664 0.112363,1.42834 -0.252181,2.22054 -0.364545,0.7922 -0.960755,1.59825 -1.595768,2.31459 -0.04647,0.0524 -0.09215,0.0994 -0.138493,0.15038 l 0.34985,0.39997 c 0.06122,-0.0668 0.12265,-0.12985 0.183451,-0.19844 0.656216,-0.74025 1.282836,-1.57887 1.681551,-2.44532 0.398716,-0.86646 0.57323,-1.77831 0.267684,-2.62155 -0.140281,-0.38715 -0.323712,-0.70366 -0.535885,-0.96015 l 1.326534,-1.3286 0.167949,0.83871 a 0.26460979,0.26460979 0 0 0 0.504878,0.0465 l 1.058334,-2.64584 a 0.26460979,0.26460979 0 0 0 -0.258382,-0.36225 z m -0.461471,0.73846 -0.499194,1.24747 -0.08423,-0.42272 a 0.26460982,0.26460982 0 0 0 -0.250114,-0.24288 l -0.413928,-0.0827 z m -10.3089312,2.15594 c -0.5049642,0.27917 -0.9471234,0.76614 -1.2257651,1.51567 -0.310201,0.83442 -0.1360988,1.74094 0.2619994,2.60552 0.3980992,0.86458 1.0245984,1.70421 1.6815512,2.44688 0.078301,0.0885 0.1577483,0.17068 0.236678,0.25632 l -1.1549682,1.15445 -2.0443197,0.51108 a 0.26460982,0.26460982 0 0 0 -0.1235066,0.0703 l -1.3218832,1.3224 a 0.26460982,0.26460982 0 0 0 0.125057,0.44545 l 1.1601359,0.2713 0.2284098,1.11156 a 0.26460982,0.26460982 0 0 0 0.4470011,0.13281 l 1.3224,-1.3224 a 0.26460982,0.26460982 0 0 0 0.07028,-0.12299 l 0.5115968,-2.0469 1.1420491,-1.14205 c 1.1193132,1.14806 2.1647258,1.94458 2.1647258,1.94458 a 0.26460982,0.26460982 0 0 0 0.3183269,0 c 0,0 1.0741998,-0.81094 2.210718,-1.98179 l -0.349333,-0.39946 c -1.0032995,1.03967 -1.8882725,1.7106 -2.0195151,1.81126 -0.1285558,-0.0993 -0.9771534,-0.74784 -1.9513021,-1.74821 l 2.4003704,-2.40037 a 0.26460982,0.26460982 0 0 0 -0.1912028,-0.45321 0.26460982,0.26460982 0 0 0 -0.181901,0.0801 l -2.3895183,2.389 c -0.071373,-0.0777 -0.1422193,-0.15146 -0.2139405,-0.23254 -0.6359622,-0.71894 -1.2318714,-1.52842 -1.5957682,-2.31872 -0.3638965,-0.79031 -0.491689,-1.54552 -0.2480469,-2.2009 0.2577963,-0.69346 0.6339801,-1.06767 1.0588501,-1.27744 0.0093,-0.005 0.019058,-0.008 0.028422,-0.0124 z m -0.9286256,8.70696 -1.3720093,1.37149 -0.6790283,-0.15865 0.9337932,-0.93379 z m 0.375171,0.37259 -0.2795696,1.11931 -0.9239745,0.92397 -0.1431438,-0.6966 z" id="path1530" style="color:#000000;font-style:normal;font-variant:normal;font-weight:normal;font-stretch:normal;font-size:medium;line-height:normal;font-family:sans-serif;font-variant-ligatures:normal;font-variant-position:normal;font-variant-caps:normal;font-variant-numeric:normal;font-variant-alternates:normal;font-feature-settings:normal;text-indent:0;text-align:start;text-decoration:none;text-decoration-line:none;text-decoration-style:solid;text-decoration-color:#000000;letter-spacing:normal;word-spacing:normal;text-transform:none;writing-mode:lr-tb;direction:ltr;text-orientation:mixed;dominant-baseline:auto;baseline-shift:baseline;text-anchor:start;white-space:normal;shape-padding:0;clip-rule:nonzero;display:inline;overflow:visible;visibility:visible;opacity:1;isolation:auto;mix-blend-mode:normal;color-interpolation:sRGB;color-interpolation-filters:linearRGB;solid-color:#000000;solid-opacity:1;vector-effect:none;fill:#000000;fill-opacity:1;fill-rule:nonzero;stroke:none;stroke-width:0.5291667;stroke-linecap:butt;stroke-linejoin:round;stroke-miterlimit:4;stroke-dasharray:none;stroke-dashoffset:0;stroke-opacity:1;color-rendering:auto;image-rendering:auto;shape-rendering:auto;text-rendering:auto;enable-background:accumulate"/><path d="m 15.136028,281.86397 -0.499194,1.24747 -0.08423,-0.42272 a 0.26460982,0.26460982 0 0 0 -0.250114,-0.24288 l -0.413928,-0.0827 z" id="path1448-1" style="color:#000000;font-style:normal;font-variant:normal;font-weight:normal;font-stretch:normal;font-size:medium;line-height:normal;font-family:sans-serif;font-variant-ligatures:normal;font-variant-position:normal;font-variant-caps:normal;font-variant-numeric:normal;font-variant-alternates:normal;font-feature-settings:normal;text-indent:0;text-align:start;text-decoration:none;text-decoration-line:none;text-decoration-style:solid;text-decoration-color:#000000;letter-spacing:normal;word-spacing:normal;text-transform:none;writing-mode:lr-tb;direction:ltr;text-orientation:mixed;dominant-baseline:auto;baseline-shift:baseline;text-anchor:start;white-space:normal;shape-padding:0;clip-rule:nonzero;display:inline;overflow:visible;visibility:visible;opacity:1;isolation:auto;mix-blend-mode:normal;color-interpolation:sRGB;color-interpolation-filters:linearRGB;solid-color:#000000;solid-opacity:1;vector-effect:none;fill:#ffc400;fill-opacity:1;fill-rule:nonzero;stroke:none;stroke-width:0.5291667;stroke-linecap:butt;stroke-linejoin:round;stroke-miterlimit:4;stroke-dasharray:none;stroke-dashoffset:0;stroke-opacity:1;color-rendering:auto;image-rendering:auto;shape-rendering:auto;text-rendering:auto;enable-background:accumulate"/><path d="m 3.8984712,292.72687 -1.3720093,1.37149 -0.6790283,-0.15864 0.9337932,-0.9338 z" id="path1442-3" style="color:#000000;font-style:normal;font-variant:normal;font-weight:normal;font-stretch:normal;font-size:medium;line-height:normal;font-family:sans-serif;font-variant-ligatures:normal;font-variant-position:normal;font-variant-caps:normal;font-variant-numeric:normal;font-variant-alternates:normal;font-feature-settings:normal;text-indent:0;text-align:start;text-decoration:none;text-decoration-line:none;text-decoration-style:solid;text-decoration-color:#000000;letter-spacing:normal;word-spacing:normal;text-transform:none;writing-mode:lr-tb;direction:ltr;text-orientation:mixed;dominant-baseline:auto;baseline-shift:baseline;text-anchor:start;white-space:normal;shape-padding:0;clip-rule:nonzero;display:inline;overflow:visible;visibility:visible;opacity:1;isolation:auto;mix-blend-mode:normal;color-interpolation:sRGB;color-interpolation-filters:linearRGB;solid-color:#000000;solid-opacity:1;vector-effect:none;fill:#ffc400;fill-opacity:1;fill-rule:nonzero;stroke:none;stroke-width:0.5291667;stroke-linecap:butt;stroke-linejoin:round;stroke-miterlimit:4;stroke-dasharray:none;stroke-dashoffset:0;stroke-opacity:1;color-rendering:auto;image-rendering:auto;shape-rendering:auto;text-rendering:auto;enable-background:accumulate"/><path d="m 4.2736422,293.09946 -0.2795696,1.11931 -0.9239745,0.92397 -0.1431438,-0.69659 z" id="path1550-0" style="color:#000000;font-style:normal;font-variant:normal;font-weight:normal;font-stretch:normal;font-size:medium;line-height:normal;font-family:sans-serif;font-variant-ligatures:normal;font-variant-position:normal;font-variant-caps:normal;font-variant-numeric:normal;font-variant-alternates:normal;font-feature-settings:normal;text-indent:0;text-align:start;text-decoration:none;text-decoration-line:none;text-decoration-style:solid;text-decoration-color:#000000;letter-spacing:normal;word-spacing:normal;text-transform:none;writing-mode:lr-tb;direction:ltr;text-orientation:mixed;dominant-baseline:auto;baseline-shift:baseline;text-anchor:start;white-space:normal;shape-padding:0;clip-rule:nonzero;display:inline;overflow:visible;visibility:visible;opacity:1;isolation:auto;mix-blend-mode:normal;color-interpolation:sRGB;color-interpolation-filters:linearRGB;solid-color:#000000;solid-opacity:1;vector-effect:none;fill:#ffc400;fill-opacity:1;fill-rule:nonzero;stroke:none;stroke-width:0.5291667;stroke-linecap:butt;stroke-linejoin:round;stroke-miterlimit:4;stroke-dasharray:none;stroke-dashoffset:0;stroke-opacity:1;color-rendering:auto;image-rendering:auto;shape-rendering:auto;text-rendering:auto;enable-background:accumulate"/></g></svg>